<?xml version="1.0" standalone="no"?><!DOCTYPE svg PUBLIC "-//W3C//DTD SVG 1.1//EN" "http://www.w3.org/Graphics/SVG/1.1/DTD/svg11.dtd"><svg t="1649851372853" class="icon" viewBox="0 0 1024 1024" version="1.1" xmlns="http://www.w3.org/2000/svg" p-id="5473" xmlns:xlink="http://www.w3.org/1999/xlink" width="200" height="200"><defs><style type="text/css"></style></defs><path d="M512 0C229.376 0 0 229.376 0 512s229.376 512 512 512 512-229.376 512-512S794.624 0 512 0z m0 955.904c-244.736 0-443.904-199.168-443.904-443.904S267.264 68.096 512 68.096s443.904 199.168 443.904 443.904-199.168 443.904-443.904 443.904z m-34.304-368.64V302.08a34.304 34.304 0 0 1 68.608 0v285.184a34.304 34.304 0 0 1-68.608 0z m78.848 146.432c0 24.576-19.968 44.544-44.544 44.544s-44.544-19.968-44.544-44.544c0-24.576 19.968-44.544 44.544-44.544s44.544 19.968 44.544 44.544z" p-id="5474" fill="#b8a6d9"></path></svg>